# xmcd
#
# Track frame offsets:
#	183
#	14975
#	27898
#	43355
#	55165
#	65823
#	91975
#	106920
#	121958
#	134093
#	146278
#	162123
#
# Disc length: 2406 seconds
#
# Revision: 0
# Processed by: cddbd v1.5.2PL0 Copyright (c) Steve Scherf et al.
# Submitted via: EasyCDDAExtractor 16.0.1.1
#
DISCID=af09640c
DTITLE=Boxcar Willie - Truck Driving Favorites [Six Days On The Road]
DYEAR=1900
DGENRE=Country
TTITLE0=Freightline Fever
TTITLE1=Truckdrivin' Man
TTITLE2=Phantom 309
TTITLE3=Truck Drivin' Son-Of-A-Gun
TTITLE4=Six Days On The Road
TTITLE5=Teddy Bear
TTITLE6=Whiteline Fever
TTITLE7=Girl On A Billboard
TTITLE8=How Fast Them Trucks Will Go
TTITLE9=Truckers Prayer
TTITLE10=Forty Acres
TTITLE11=Convoy
EXTD=
EXTT0=
EXTT1=
EXTT2=
EXTT3=
EXTT4=
EXTT5=
EXTT6=
EXTT7=
EXTT8=
EXTT9=
EXTT10=
EXTT11=
PLAYORDER=
